<?xml version="1.0" standalone="no"?>
<!DOCTYPE svg PUBLIC "-//W3C//DTD SVG 20010904//EN"
 "http://www.w3.org/TR/2001/REC-SVG-20010904/DTD/svg10.dtd">
<svg version="1.0" xmlns="http://www.w3.org/2000/svg"
 width="640.000000pt" height="640.000000pt" viewBox="0 0 640.000000 640.000000"
 preserveAspectRatio="xMidYMid meet">
<metadata>
Created by potrace 1.11, written by Peter Selinger 2001-2013
</metadata>
<g transform="translate(0.000000,640.000000) scale(0.100000,-0.100000)"
fill="#000000" stroke="none">
<path d="M0 3200 l0 -3200 3200 0 3200 0 0 3200 0 3200 -3200 0 -3200 0 0
-3200z m2290 0 l0 -2820 -320 0 -320 0 0 2820 0 2820 320 0 320 0 0 -2820z
m820 2795 c569 -52 865 -230 1070 -640 113 -227 160 -428 160 -685 0 -219 -50
-408 -160 -602 -80 -141 -148 -231 -358 -477 l-44 -51 204 0 c111 0 244 -5
293 -10 390 -44 501 -206 383 -560 -40 -122 -209 -454 -373 -735 -446 -762
-548 -961 -596 -1160 -62 -258 42 -390 341 -434 41 -6 176 -15 300 -20 148 -6
242 -15 273 -25 100 -30 147 -85 147 -169 l0 -43 -422 3 c-233 2 -716 6 -1074
9 l-652 6 247 347 c674 945 979 1438 1115 1803 49 131 66 208 66 299 0 105
-20 166 -76 228 -127 141 -427 193 -939 162 -104 -6 -228 -14 -275 -17 -84 -5
-85 -5 -60 13 13 10 107 81 210 157 551 413 790 679 872 971 31 111 31 304 0
420 -47 174 -164 361 -290 460 -134 107 -280 154 -502 162 -129 5 -413 -14
-497 -32 l-23 -5 0 318 c0 175 3 322 8 326 10 11 468 -3 652 -19z"/>
</g>
</svg>
